<svg id="Layer_5" enable-background="new 0 0 64 64" height="512" viewBox="0 0 64 64" width="512" xmlns="http://www.w3.org/2000/svg" xmlns:xlink="http://www.w3.org/1999/xlink"><linearGradient id="SVGID_1_" gradientUnits="userSpaceOnUse" x1="32" x2="32" y1="63" y2="1"><stop offset="0" stop-color="#9f2fff"/><stop offset="1" stop-color="#0bb1d3"/></linearGradient><path d="m23 25h2v7.917c0 1.149-.935 2.083-2.083 2.083-1.022 0-1.886-.732-2.054-1.741l-.686-4.108c-.029-.175-.326-.174-.355 0l-.686 4.109c-.167 1.008-1.031 1.74-2.053 1.74-1.148 0-2.083-.934-2.083-2.083v-7.917h2v7.917c-.001.084.149.099.164.014l.686-4.109c.175-1.056 1.08-1.822 2.15-1.822s1.975.766 2.15 1.822l.686 4.108c.015.086.163.071.164-.013zm12 7.917c0 .084-.15.099-.164.013l-.686-4.108c-.175-1.056-1.08-1.822-2.15-1.822s-1.975.766-2.15 1.822l-.686 4.109c-.016.085-.165.07-.164-.014v-7.917h-2v7.917c0 1.149.935 2.083 2.083 2.083 1.022 0 1.886-.732 2.054-1.74l.686-4.109c.029-.174.326-.174.355 0l.686 4.108c.167 1.009 1.031 1.741 2.053 1.741 1.148 0 2.083-.934 2.083-2.083v-7.917h-2zm-20 12.083v2h2v-2zm-4 2h2v-2h-2zm-4 0h2v-2h-2zm56-31v30c0 2.757-2.243 5-5 5h-17.962c.168 1.595.997 3.041 2.296 4h4.666c1.654 0 3 1.346 3 3v2c0 1.654-1.346 3-3 3h-30c-1.654 0-3-1.346-3-3v-2c0-1.654 1.346-3 3-3h4.666c1.299-.959 2.128-2.405 2.296-4h-17.962c-2.757 0-5-2.243-5-5v-30c0-2.757 2.243-5 5-5h13.363c1.36-5.724 6.503-10 12.637-10s11.277 4.276 12.637 10h13.363c2.757 0 5 2.243 5 5zm-18.051-3c.026.331.051.662.051 1 0 .335-.02.668-.046 1h12.046c1.103 0 2 .897 2 2v18.986l2 .333v-20.319c0-1.654-1.346-3-3-3zm-15.958-6h6.019c-.79-2.473-1.935-4-3.01-4s-2.22 1.527-3.009 4zm-.51 2c-.244 1.209-.408 2.553-.46 4h7.958c-.052-1.447-.217-2.791-.46-4zm13.305 0h-4.216c.225 1.237.363 2.581.409 4h4.971c-.13-1.43-.538-2.779-1.164-4zm15.214 8h-12.367c-.339 1.416-.911 2.767-1.704 4h7.071c1.654 0 3 1.346 3 3v10.986l4 .667zm-8 8v7.917c0 .504-.187.961-.486 1.321l2.486.415v-10.653c0-.551-.448-1-1-1h-36c-.552 0-1 .449-1 1v12c0 .551.448 1 1 1h32.319l-.374-2.245c-.558-.295-.971-.833-1.082-1.495l-.686-4.108c-.029-.175-.326-.174-.355 0l-.686 4.109c-.167 1.007-1.031 1.739-2.053 1.739-1.148 0-2.083-.934-2.083-2.083v-7.917h2v7.917c0 .084.148.099.164.014l.686-4.109c.175-1.056 1.08-1.822 2.15-1.822s1.975.766 2.15 1.822l.686 4.108c.014.087.164.071.164-.013v-7.917zm-27.954-10c.202 2.198 1.076 4.283 2.499 6h3.365c-.509-1.794-.818-3.855-.891-6zm13.958 6c.558-1.736.897-3.813.977-6h-7.962c.079 2.187.419 4.264.977 6zm7.95-6h-4.973c-.073 2.145-.382 4.206-.891 6h3.365c1.423-1.717 2.297-3.802 2.499-6zm-16.523-6h-4.216c-.626 1.221-1.034 2.57-1.164 4h4.971c.045-1.419.184-2.763.409-4zm-7.064 8h-12.367v24h39.986l-.333-2h-32.653c-1.654 0-3-1.346-3-3v-12c0-1.654 1.346-3 3-3h7.071c-.793-1.233-1.366-2.584-1.704-4zm28.85 19.216 1.45 8.703 2.333-2.333 3 3 2.586-2.586-3-3 2.333-2.333zm-12.503-32.557c.554.919 1.023 2.046 1.391 3.341h3.373c-1.246-1.507-2.89-2.665-4.764-3.341zm-12.193 3.341h3.373c.368-1.295.837-2.422 1.391-3.341-1.873.676-3.517 1.834-4.764 3.341zm-17.521 42h42.32l-1-6h-40.32c-1.103 0-2-.897-2-2v-24c0-1.103.897-2 2-2h12.046c-.026-.332-.046-.665-.046-1 0-.338.025-.669.051-1h-13.051c-1.654 0-3 1.346-3 3v30c0 1.654 1.346 3 3 3zm41 8h-30c-.552 0-1 .449-1 1v2c0 .551.448 1 1 1h30c.552 0 1-.449 1-1v-2c0-.551-.448-1-1-1zm-8.963-6h-12.074c-.114 1.464-.634 2.845-1.492 4h15.06c-.859-1.155-1.379-2.536-1.494-4zm22.963-5v-9.586l-3.586 3.586 3 3-5.414 5.414-3-3-3.586 3.586h9.586c1.654 0 3-1.346 3-3z" fill="url(#SVGID_1_)"/></svg>